<?xml version="1.0" encoding="UTF-8" standalone="no"?>
<svg
   xmlns:dc="http://purl.org/dc/elements/1.1/"
   xmlns:cc="http://creativecommons.org/ns#"
   xmlns:rdf="http://www.w3.org/1999/02/22-rdf-syntax-ns#"
   xmlns:svg="http://www.w3.org/2000/svg"
   xmlns="http://www.w3.org/2000/svg"
   xmlns:sodipodi="http://sodipodi.sourceforge.net/DTD/sodipodi-0.dtd"
   xmlns:inkscape="http://www.inkscape.org/namespaces/inkscape"
   sodipodi:docname="lg_with_motto.svg"
   inkscape:version="1.0 (4035a4f, 2020-05-01)"
   id="svg8"
   version="1.1"
   viewBox="0 0 210 297"
   height="297mm"
   width="210mm">
  <defs
     id="defs2">
    <rect
       id="rect50"
       height="24.946429"
       width="159.50595"
       y="201.08333"
       x="23.434524" />
  </defs>
  <sodipodi:namedview
     inkscape:window-maximized="0"
     inkscape:window-y="0"
     inkscape:window-x="0"
     inkscape:window-height="1120"
     inkscape:window-width="1792"
     showgrid="false"
     inkscape:document-rotation="0"
     inkscape:current-layer="layer1"
     inkscape:document-units="mm"
     inkscape:cy="560"
     inkscape:cx="400"
     inkscape:zoom="0.35"
     inkscape:pageshadow="2"
     inkscape:pageopacity="0.0"
     borderopacity="1.0"
     bordercolor="#666666"
     pagecolor="#ffffff"
     id="base" />
  <metadata
     id="metadata5">
    <rdf:RDF>
      <cc:Work
         rdf:about="">
        <dc:format>image/svg+xml</dc:format>
        <dc:type
           rdf:resource="http://purl.org/dc/dcmitype/StillImage" />
        <dc:title></dc:title>
      </cc:Work>
    </rdf:RDF>
  </metadata>
  <g
     id="layer1"
     inkscape:groupmode="layer"
     inkscape:label="Layer 1">
    <g
       transform="matrix(0.03527778,0,0,-0.03527778,57.188436,180.84898)"
       id="g20">
      <path
         id="path22"
         style="fill:#2c6675;fill-opacity:1;fill-rule:nonzero;stroke:none"
         d="m 506.68,3134.92 h 1670.51 c 277.03,0 500.04,-223.01 500.04,-500.04 V 1002.23 c 0,-277 -223.01,-500.039 -500.04,-500.039 H 506.68 C 229.648,502.191 6.64063,725.23 6.64063,1002.23 v 1632.65 c 0,277.03 223.00737,500.04 500.03937,500.04 z" />
      <path
         id="path24"
         style="fill:#f36c54;fill-opacity:1;fill-rule:nonzero;stroke:none"
         d="m 816.988,1582.42 c -79.328,5.7 -137.148,31.33 -189.367,83.99 -36.141,36.4 -64.301,90.89 -78.949,152.61 -5.152,21.68 -5.473,33.95 -6.723,253.13 -1.289,230.19 1.371,374.96 7.352,401.8 13.469,60.35 37.148,105.58 74.719,142.81 40.941,40.51 97.968,69.29 165.902,83.67 25.348,5.35 35.699,5.47 643.788,7.07 l 618.01,1.64 0.74,49.45 0.7,49.46 73.05,-86.53 c 40.2,-47.61 72.66,-87.69 72.23,-89.06 -0.47,-1.37 -33.95,-42.66 -74.38,-91.72 l -73.55,-89.29 -0.74,52.38 -0.75,52.34 -604.61,-1.68 c -332.53,-0.94 -611.25,-2.34 -619.371,-3.16 -35.738,-3.52 -67.34,-17.97 -90.82,-41.41 -17.418,-17.42 -31.289,-42.85 -35,-64.1 -6.489,-37.23 -13.399,-493.71 -8.399,-556.29 4.489,-56.52 14.301,-83.87 39.879,-111.21 15.781,-16.84 33.75,-28.01 58.871,-36.6 l 20.739,-7.07 353.951,-1.33 353.9,-1.33 128.29,-147.34 -75.2,-1.64 c -76.17,-1.64 -732.031,-2.15 -754.262,-0.59 z" />
      <path
         id="path26"
         style="fill:#f36c54;fill-opacity:1;fill-rule:nonzero;stroke:none"
         d="m 1048.36,1931.91 139.26,158.01 h 712.5 c 0,0 266.52,-20.35 273.24,-275.86 6.8,-260.23 0.9,-587.22 2.66,-586.64 2.77,-6.91 -20.55,-285.541 -377.66,-273.201 -380.74,13.16 -1067.11,-7.149 -1066.09,0 l -5.36,-107.149 -163.39,198.24 163.39,195.51 v -125.9 l 1100.9,2.7 c 0,0 155.35,-26.8 179.46,115.19 24.1,141.96 0,538.36 0,538.36 0,0 11.79,155.94 -198.21,152.7 -202.81,-3.13 -760.47,8.79 -760.7,8.04 z" />
      <g
         transform="scale(10)"
         id="g28" />
    </g>
    <text
       id="text56"
       y="193.07059"
       x="6.7279782"
       style="font-style:normal;font-weight:normal;font-size:29.9861px;line-height:1.25;font-family:sans-serif;fill:#2c6675;fill-opacity:1;stroke:none;stroke-width:0.264583"
       xml:space="preserve"><tspan
         style="font-style:normal;font-variant:normal;font-weight:normal;font-stretch:normal;font-size:29.9861px;font-family:Staatliches;-inkscape-font-specification:Staatliches;fill:#2c6675;fill-opacity:1;stroke-width:0.264583"
         y="193.07059"
         x="6.7279782"
         id="tspan54"
         sodipodi:role="line">Speedlight money</tspan></text>
    <text
       id="text60"
       y="210.60863"
       x="7.3327403"
       style="font-style:normal;font-weight:normal;font-size:16.5806px;line-height:1.25;font-family:sans-serif;fill:#f36c54;fill-opacity:1;stroke:none;stroke-width:0.264583"
       xml:space="preserve"><tspan
         style="font-style:normal;font-variant:normal;font-weight:normal;font-stretch:normal;font-size:16.5806px;font-family:Viga;-inkscape-font-specification:Viga;fill:#f36c54;fill-opacity:1;stroke-width:0.264583"
         y="210.60863"
         x="7.3327403"
         id="tspan58"
         sodipodi:role="line">Fastest way to get money!</tspan></text>
  </g>
</svg>
